<svg version="1.1" id="Vrstva_1" xmlns="http://www.w3.org/2000/svg" xmlns:xlink="http://www.w3.org/1999/xlink" x="0px" y="0px"
	 width="30px" height="30px" viewBox="0 0 30 30" enable-background="new 0 0 30 30" xml:space="preserve">
<g class="circle">
	<path d="M15.126,13.039h3.31v0.736h-3.31v9.041h-0.852v-9.041h-2.324v-0.736h2.324V12.07c0-2.768,0.445-4.278,4.162-3.62v0.697
		c-2.864-0.445-3.31,0.406-3.31,2.749V13.039z"/>
</g>
<g class="body">
	<path d="M14.988,30C7.043,30,0.47,23.78,0.023,15.84C-0.438,7.582,5.903,0.487,14.16,0.023c8.307-0.459,15.355,5.913,15.815,14.136
		c0.225,4-1.122,7.847-3.791,10.834s-6.343,4.757-10.344,4.981C15.555,29.991,15.271,30,14.988,30z M15.013,0.967
		c-0.265,0-0.531,0.007-0.799,0.022C6.49,1.423,0.557,8.061,0.989,15.786c0.433,7.692,7.028,13.667,14.798,13.224
		c3.742-0.211,7.177-1.865,9.675-4.66c2.498-2.794,3.757-6.394,3.547-10.136C28.594,6.786,22.445,0.967,15.013,0.967z"/>
</g>
</svg>
