<svg version="1.1" xmlns="http://www.w3.org/2000/svg" xmlns:xlink="http://www.w3.org/1999/xlink" x="0px" y="0px"
	 width="30px" height="30px" viewBox="0 0 30 30" enable-background="new 0 0 30 30" xml:space="preserve">
<circle cx="15" cy="15" r="14.5" stroke-width="1" fill="none" stroke="#333" />
<g class="in"><path d="M23.344,9.688h0.924v2.574h2.482v0.871h-2.482v2.548h-0.924v-2.548h-2.469v-0.871h2.469V9.688z"/></g>
<g class="in">
	<path d="M18.871,9.634l-1.24,0.06c0.701,0.6,1.102,1.5,1.102,2.7v0.02c0,2.441-1.621,3.621-4.062,3.621c-0.4,0-0.76-0.02-1.1-0.08
		c-0.8,0.801-0.62,2.08,0.7,2.08h2.28c1.681,0,2.781,0.92,2.781,2.381c0,1.78-1.86,2.86-4.521,2.86c-3.081,0-4.501-1.16-4.101-3.3
		h0.84c-0.32,1.74,0.86,2.54,3.261,2.54c2.14,0,3.64-0.72,3.64-2.061c0-1.101-0.859-1.72-2.02-1.72h-2.221
		c-1.98,0-2.381-1.861-1.36-2.961c-1.38-0.48-2.201-1.6-2.201-3.361v-0.02c0-2.42,1.601-3.621,4.041-3.621
		c0.56,0,1.1,0.08,1.561,0.2h2.619V9.634z M17.852,12.414v-0.02c0-1.9-1.26-2.86-3.161-2.86c-1.92,0-3.181,0.96-3.181,2.86v0.02
		c0,1.92,1.26,2.861,3.161,2.861C16.592,15.275,17.852,14.334,17.852,12.414z"/>
</g>
<g class="in">
	<path d="M11.478,20h-0.813c0-1.008,1.335-2.057,3.335-2.057v0.813C13,18.757,11.478,18.992,11.478,20z"/>
</g>
</svg>
