<svg version="1.1" xmlns="http://www.w3.org/2000/svg" xmlns:xlink="http://www.w3.org/1999/xlink" x="0px" y="0px"
	 width="30px" height="30px" viewBox="0 0 30 30" enable-background="new 0 0 30 30" xml:space="preserve">
<circle cx="15" cy="15" r="14.5" stroke-width="1" fill="transparent" stroke="#333" />
<g class="in">
<path fill-rule="evenodd" clip-rule="evenodd" d="M13.727,18.055c-0.262,1.025-0.508,2.01-0.764,2.991
	c-0.34,1.3-1.021,2.427-1.797,3.503c-0.088,0.123-0.176,0.248-0.279,0.36c-0.043,0.049-0.131,0.101-0.184,0.089
	c-0.047-0.012-0.098-0.105-0.107-0.168c-0.152-0.994-0.217-1.993-0.146-2.998c0.088-1.295,0.496-2.525,0.773-3.782
	c0.264-1.198,0.564-2.39,0.838-3.586c0.027-0.115,0.014-0.255-0.025-0.368c-0.346-0.999-0.422-2.005-0.055-3.01
	c0.268-0.736,0.717-1.324,1.518-1.544c1.039-0.286,1.922,0.366,1.977,1.443c0.035,0.696-0.156,1.352-0.346,2.008
	c-0.215,0.758-0.465,1.507-0.65,2.272c-0.305,1.26,0.676,2.347,1.971,2.238c0.992-0.084,1.684-0.636,2.23-1.409
	c0.637-0.897,0.959-1.921,1.135-2.995c0.125-0.758,0.195-1.522,0.105-2.291c-0.221-1.884-1.316-3.198-3.154-3.653
	c-1.992-0.494-3.873-0.208-5.441,1.188c-1.516,1.347-2.074,3.078-1.73,5.082c0.084,0.486,0.314,0.92,0.641,1.291
	c0.195,0.222,0.256,0.446,0.162,0.73c-0.088,0.258-0.139,0.528-0.209,0.791c-0.098,0.364-0.301,0.459-0.648,0.303
	c-0.912-0.406-1.518-1.11-1.852-2.031c-0.799-2.215-0.457-4.295,0.873-6.206c1.227-1.762,2.969-2.744,5.057-3.125
	c1.529-0.279,3.059-0.261,4.537,0.274c2.264,0.82,3.787,2.355,4.41,4.717c0.227,0.865,0.201,1.748,0.109,2.626
	c-0.131,1.264-0.459,2.475-1.094,3.585c-0.814,1.421-1.949,2.457-3.562,2.891c-1.02,0.274-2.039,0.308-3.025-0.156
	c-0.475-0.225-0.889-0.523-1.182-0.971C13.795,18.121,13.773,18.104,13.727,18.055z"/>
</g>
</svg>
