<svg version="1.1" xmlns="http://www.w3.org/2000/svg" xmlns:xlink="http://www.w3.org/1999/xlink" x="0px" y="0px"
	 width="30px" height="30px" viewBox="0 0 30 30" enable-background="new 0 0 30 30">
<circle cx="15" cy="15" r="14.5" stroke-width="1" fill="none" stroke="#333" />
<path fill="none" stroke="#000" stroke-width="1" stroke-linecap="round" stroke-miterlimit="10" d="M23.648,10.032
	c0.033,0.632-1.08,1.147-1.434,1.79c0.322,7.356-7.902,12.245-14.209,8.12c1.764,0.322,3.471-0.426,4.537-1.193
	c-1.352-0.4-2.516-0.986-2.865-2.389c0.658,0.045,0.654,0.045,1.312,0c-1.34-0.568-2.389-1.432-2.506-3.224
	c0.477,0.08,0.863,0.251,1.312,0.359c-0.766-0.622-1.805-2.681-0.955-4.3c1.793,1.551,3.592,3.097,6.688,3.344
	c-0.463-3.572,3.689-5.183,5.85-2.985c0.672-0.204,1.283-0.468,1.91-0.716c-0.182,0.772-0.709,1.202-1.193,1.672
	C22.701,10.438,23.266,10.326,23.648,10.032"/>
</svg>
